<svg xmlns="http://www.w3.org/2000/svg" version="1.1" xmlns:xlink="http://www.w3.org/1999/xlink" xmlns:svgjs="http://svgjs.dev/svgjs" width="1000" height="1000" viewBox="0 0 1000 1000"><rect width="1000" height="1000" fill="#282634"></rect><g transform="matrix(0.7,0,0,0.7,149.57575757575756,282.1265587044535)"><svg viewBox="0 0 396 247" data-background-color="#282634" preserveAspectRatio="xMidYMid meet" height="623" width="1000" xmlns="http://www.w3.org/2000/svg" xmlns:xlink="http://www.w3.org/1999/xlink"><g id="tight-bounds" transform="matrix(1,0,0,1,0.2400000000000091,-0.09999999999999432)"><svg viewBox="0 0 395.52 247.2" height="247.2" width="395.52"><g><svg></svg></g><g><svg viewBox="0 0 395.52 247.2" height="247.2" width="395.52"><g transform="matrix(1,0,0,1,125.39545263157893,47.215199999999996)"><svg viewBox="0 0 144.72909473684211 152.7696" height="152.7696" width="144.72909473684211"><g><svg viewBox="0 0 144.72909473684211 152.7696" height="152.7696" width="144.72909473684211"><g><svg viewBox="0 0 144.72909473684211 152.7696" height="152.7696" width="144.72909473684211"><g><svg viewBox="0 0 144.72909473684211 152.7696" height="152.7696" width="144.72909473684211"><g id="textblocktransform"><svg viewBox="0 0 144.72909473684211 152.7696" height="152.7696" width="144.72909473684211" id="textblock"><g><svg viewBox="0 0 144.72909473684211 152.7696" height="152.7696" width="144.72909473684211"><g transform="matrix(1,0,0,1,0,0)"><svg width="144.72909473684211" viewBox="1.350000023841858 -32.45000076293945 31.499998092651367 33.25" height="152.7696" data-palette-color="#ff4057"><path d="M25.75 0.8Q23.9 0.8 22.58-0.33 21.25-1.45 20.2-3.8L20.2-3.8 16.4-12.1 13.2-12.1 13.15-7.45Q13.15-5.7 13.38-4.98 13.6-4.25 14.3-4 15-3.75 16.7-3.7L16.7-3.7 16.95-3.35 16.45 0.2 9.1 0Q7.05 0 4.58 0.15 2.1 0.3 1.35 0.35L1.35 0.35 1.8-3.5Q3.8-3.8 4.5-4.67 5.2-5.55 5.2-7.65L5.2-7.65 5.25-26.15Q5.25-27.5 4.93-28 4.6-28.5 3.75-28.5L3.75-28.5Q3.2-28.5 2.7-28.45 2.2-28.4 2.05-28.4L2.05-28.4 1.65-28.85 2.15-32.3Q2.9-32.3 4.88-32.25 6.85-32.2 8.75-32.2L8.75-32.2Q11-32.2 13.55-32.3 16.1-32.4 17.1-32.45L17.1-32.45Q23.3-32.45 26.53-30.2 29.75-27.95 29.75-23.55L29.75-23.55Q29.75-20.6 28.1-18.18 26.45-15.75 23.35-14.05L23.35-14.05 27.15-7.8Q28.5-5.55 29.78-4.5 31.05-3.45 32.4-3.45L32.4-3.45 32.85-2.8 32.45 0.25 25.75 0.8ZM17.55-16.8Q19.15-17.55 20.23-18.8 21.3-20.05 21.3-22.55L21.3-22.55Q21.3-25.05 19.65-26.25 18-27.45 14.6-27.45L14.6-27.45Q14.1-27.45 13.95-27.25 13.8-27.05 13.75-26.35L13.75-26.35Q13.45-22.05 13.35-17.3L13.35-17.3 17.55-16.8Z" opacity="1" transform="matrix(1,0,0,1,0,0)" fill="#ff4057" class="wordmark-text-0" data-fill-palette-color="primary" id="text-0"></path></svg></g></svg></g></svg></g></svg></g></svg></g></svg></g></svg></g><g><path d="M0 123.6c0-68.262 55.338-123.6 123.6-123.6 30.402 0 58.24 10.976 79.768 29.183l-11.147 0c-19.26-14.022-42.974-22.294-68.621-22.295-64.458 0-116.712 52.254-116.712 116.712 0 64.458 52.254 116.712 116.712 116.712 25.647 0 49.361-8.272 68.621-22.295l11.147 0c-21.528 18.206-49.366 29.183-79.768 29.183-68.262 0-123.6-55.338-123.6-123.6z" fill="#ff4057" stroke="transparent" data-fill-palette-color="tertiary"></path></g></svg></g><defs></defs></svg><rect width="395.52" height="247.2" fill="none" stroke="none" visibility="hidden"></rect></g></svg></g></svg>