<svg xmlns="http://www.w3.org/2000/svg" version="1.1" xmlns:xlink="http://www.w3.org/1999/xlink" xmlns:svgjs="http://svgjs.dev/svgjs" width="1000" height="1000" viewBox="0 0 1000 1000"><rect width="1000" height="1000" fill="#ffffff"></rect><g transform="matrix(0.7,0,0,0.7,149.57575757575756,282.1265587044535)"><svg viewBox="0 0 396 247" data-background-color="#ffffff" preserveAspectRatio="xMidYMid meet" height="623" width="1000" xmlns="http://www.w3.org/2000/svg" xmlns:xlink="http://www.w3.org/1999/xlink"><g id="tight-bounds" transform="matrix(1,0,0,1,0.2400000000000091,-0.09999999999999432)"><svg viewBox="0 0 395.52 247.2" height="247.2" width="395.52"><g><svg></svg></g><g><svg viewBox="0 0 395.52 247.2" height="247.2" width="395.52"><g transform="matrix(1,0,0,1,75.54432,105.81613657138095)"><svg viewBox="0 0 244.43135999999998 35.5677268572381" height="35.5677268572381" width="244.43135999999998"><g><svg viewBox="0 0 244.43135999999998 35.5677268572381" height="35.5677268572381" width="244.43135999999998"><g><svg viewBox="0 0 244.43135999999998 35.5677268572381" height="35.5677268572381" width="244.43135999999998"><g><svg viewBox="0 0 244.43135999999998 35.5677268572381" height="35.5677268572381" width="244.43135999999998"><g id="textblocktransform"><svg viewBox="0 0 244.43135999999998 35.5677268572381" height="35.5677268572381" width="244.43135999999998" id="textblock"><g><svg viewBox="0 0 244.43135999999998 35.5677268572381" height="35.5677268572381" width="244.43135999999998"><g transform="matrix(1,0,0,1,0,0)"><svg width="244.43135999999998" viewBox="1.37 -38.09 292.92 42.63" height="35.5677268572381" data-palette-color="#ba3b0a"><path d="M16.09 0L1.37 0 1.37-4.27 5.15-5 5.15-30.52 1.37-31.25 1.37-35.55 18.21-35.55Q22.31-35.55 25.24-34.28 28.17-33.01 29.75-30.64 31.32-28.27 31.32-24.95L31.32-24.95Q31.32-21.83 29.76-19.36 28.2-16.89 25.42-15.48 22.63-14.06 18.99-14.04L18.99-14.04 12.28-14.04 12.28-5 16.09-4.27 16.09 0ZM32.89 0L24.24 0 18.26-15.36 24.68-16.94 29.86-4.98 32.89-4.27 32.89 0ZM12.28-30.05L12.28-19.53 18.09-19.53Q21.17-19.53 22.69-20.84 24.22-22.14 24.22-24.63L24.22-24.63Q24.22-27.1 22.71-28.58 21.19-30.05 18.21-30.05L18.21-30.05 12.28-30.05ZM48.51 0.51L48.51 0.51Q44.6 0.51 41.79-1.2 38.99-2.91 37.5-5.94 36.01-8.98 36.01-12.94L36.01-12.94 36.01-13.45Q36.01-17.38 37.5-20.42 38.99-23.46 41.78-25.18 44.58-26.9 48.46-26.9L48.46-26.9Q52.39-26.9 55.17-25.18 57.96-23.46 59.45-20.43 60.94-17.41 60.94-13.45L60.94-13.45 60.94-12.94Q60.94-8.98 59.45-5.94 57.96-2.91 55.17-1.2 52.39 0.51 48.51 0.51ZM48.51-4.96L48.51-4.96Q50.36-4.96 51.54-5.96 52.71-6.96 53.27-8.75 53.83-10.55 53.83-12.94L53.83-12.94 53.83-13.45Q53.83-15.8 53.27-17.59 52.71-19.38 51.52-20.4 50.34-21.41 48.46-21.41L48.46-21.41Q46.63-21.41 45.43-20.4 44.24-19.38 43.69-17.59 43.14-15.8 43.14-13.45L43.14-13.45 43.14-12.94Q43.14-10.55 43.69-8.74 44.24-6.93 45.43-5.94 46.63-4.96 48.51-4.96ZM76.85 0L63.23 0 63.23-4.27 66.67-5 66.67-33.06 62.86-33.79 62.86-38.09 73.77-38.09 73.77-23.05Q75.02-24.88 76.86-25.89 78.71-26.9 81.05-26.9L81.05-26.9Q85.03-26.9 87.36-24.26 89.69-21.61 89.69-16.06L89.69-16.06 89.69-5 93.11-4.27 93.11 0 79.49 0 79.49-4.27 82.56-5 82.56-16.11Q82.56-18.97 81.49-20.17 80.41-21.36 78.34-21.36L78.34-21.36Q76.9-21.36 75.72-20.76 74.53-20.17 73.77-19.02L73.77-19.02 73.77-5 76.85-4.27 76.85 0ZM109.17 0L95.18 0 95.18-4.27 98.63-5 98.63-21.39 94.82-22.12 94.82-26.42 105.75-26.42 105.75-5 109.17-4.27 109.17 0ZM105.75-32.01L98.38-32.01 98.38-38.09 105.75-38.09 105.75-32.01ZM121.91 0.51L121.91 0.51Q118.23 0.51 116.24-1.51 114.25-3.54 114.25-7.93L114.25-7.93 114.25-21.41 110.61-21.41 110.61-26.42 114.25-26.42 114.25-32.89 121.35-32.89 121.35-26.42 126.21-26.42 126.21-21.41 121.35-21.41 121.35-7.96Q121.35-6.42 122-5.76 122.65-5.1 123.77-5.1L123.77-5.1Q124.36-5.1 125.04-5.19 125.72-5.27 126.21-5.37L126.21-5.37 126.82-0.22Q125.72 0.1 124.44 0.31 123.16 0.51 121.91 0.51ZM142.71 0L129.09 0 129.09-4.27 132.53-5 132.53-33.06 128.72-33.79 128.72-38.09 139.64-38.09 139.64-23.05Q140.88-24.88 142.72-25.89 144.57-26.9 146.91-26.9L146.91-26.9Q150.89-26.9 153.22-24.26 155.55-21.61 155.55-16.06L155.55-16.06 155.55-5 158.97-4.27 158.97 0 145.35 0 145.35-4.27 148.43-5 148.43-16.11Q148.43-18.97 147.35-20.17 146.28-21.36 144.2-21.36L144.2-21.36Q142.76-21.36 141.58-20.76 140.39-20.17 139.64-19.02L139.64-19.02 139.64-5 142.71-4.27 142.71 0ZM184.19 4.54L161.97 4.54 161.97 0 184.19 0 184.19 4.54ZM199.96 0.51L199.96 0.51Q196.56 0.51 193.78-0.68 191-1.88 189.37-4.16 187.75-6.45 187.82-9.69L187.82-9.69 187.87-9.84 194.78-9.84Q194.78-8.42 195.42-7.32 196.05-6.23 197.21-5.59 198.37-4.96 199.96-4.96L199.96-4.96Q202.42-4.96 203.85-6.34 205.28-7.71 205.28-10.18L205.28-10.18Q205.28-12.67 203.86-14.06 202.45-15.45 199.59-15.45L199.59-15.45 195.73-15.45 195.73-20.8 199.74-20.8Q201.45-20.8 202.55-21.4 203.64-22 204.18-23.1 204.72-24.19 204.72-25.68L204.72-25.68Q204.72-27.95 203.5-29.26 202.28-30.57 199.96-30.57L199.96-30.57Q198.57-30.57 197.49-30.02 196.42-29.47 195.82-28.47 195.22-27.47 195.22-26.15L195.22-26.15 188.31-26.15 188.26-26.29Q188.19-29.13 189.66-31.34 191.12-33.54 193.79-34.8 196.47-36.06 199.91-36.06L199.91-36.06Q205.3-36.06 208.58-33.44 211.85-30.81 211.85-26L211.85-26Q211.85-23.51 210.47-21.51 209.09-19.51 206.35-18.24L206.35-18.24Q209.31-17.19 210.86-15.01 212.41-12.84 212.41-9.96L212.41-9.96Q212.41-6.71 210.8-4.37 209.19-2.03 206.37-0.76 203.55 0.51 199.96 0.51ZM227.1 0.51L227.1 0.51Q223.71 0.51 220.93-0.68 218.14-1.88 216.52-4.16 214.9-6.45 214.97-9.69L214.97-9.69 215.02-9.84 221.93-9.84Q221.93-8.42 222.56-7.32 223.2-6.23 224.36-5.59 225.52-4.96 227.1-4.96L227.1-4.96Q229.57-4.96 231-6.34 232.43-7.71 232.43-10.18L232.43-10.18Q232.43-12.67 231.01-14.06 229.59-15.45 226.74-15.45L226.74-15.45 222.88-15.45 222.88-20.8 226.88-20.8Q228.59-20.8 229.69-21.4 230.79-22 231.33-23.1 231.86-24.19 231.86-25.68L231.86-25.68Q231.86-27.95 230.64-29.26 229.42-30.57 227.1-30.57L227.1-30.57Q225.71-30.57 224.64-30.02 223.56-29.47 222.97-28.47 222.37-27.47 222.37-26.15L222.37-26.15 215.46-26.15 215.41-26.29Q215.34-29.13 216.8-31.34 218.27-33.54 220.94-34.8 223.61-36.06 227.06-36.06L227.06-36.06Q232.45-36.06 235.72-33.44 238.99-30.81 238.99-26L238.99-26Q238.99-23.51 237.61-21.51 236.23-19.51 233.5-18.24L233.5-18.24Q236.45-17.19 238-15.01 239.56-12.84 239.56-9.96L239.56-9.96Q239.56-6.71 237.94-4.37 236.33-2.03 233.51-0.76 230.69 0.51 227.1 0.51ZM254.25 0.51L254.25 0.51Q250.86 0.51 248.07-0.68 245.29-1.88 243.67-4.16 242.04-6.45 242.12-9.69L242.12-9.69 242.17-9.84 249.07-9.84Q249.07-8.42 249.71-7.32 250.34-6.23 251.5-5.59 252.66-4.96 254.25-4.96L254.25-4.96Q256.72-4.96 258.14-6.34 259.57-7.71 259.57-10.18L259.57-10.18Q259.57-12.67 258.16-14.06 256.74-15.45 253.88-15.45L253.88-15.45 250.03-15.45 250.03-20.8 254.03-20.8Q255.74-20.8 256.84-21.4 257.94-22 258.47-23.1 259.01-24.19 259.01-25.68L259.01-25.68Q259.01-27.95 257.79-29.26 256.57-30.57 254.25-30.57L254.25-30.57Q252.86-30.57 251.78-30.02 250.71-29.47 250.11-28.47 249.51-27.47 249.51-26.15L249.51-26.15 242.6-26.15 242.56-26.29Q242.48-29.13 243.95-31.34 245.41-33.54 248.09-34.8 250.76-36.06 254.2-36.06L254.2-36.06Q259.6-36.06 262.87-33.44 266.14-30.81 266.14-26L266.14-26Q266.14-23.51 264.76-21.51 263.38-19.51 260.65-18.24L260.65-18.24Q263.6-17.19 265.15-15.01 266.7-12.84 266.7-9.96L266.7-9.96Q266.7-6.71 265.09-4.37 263.48-2.03 260.66-0.76 257.84 0.51 254.25 0.51ZM282.3 0.51L282.3 0.51Q276.73 0.51 273.49-3.14 270.24-6.79 270.24-13.84L270.24-13.84 270.24-21.68Q270.24-28.71 273.47-32.39 276.71-36.06 282.25-36.06L282.25-36.06Q287.77-36.06 291.03-32.39 294.29-28.71 294.29-21.68L294.29-21.68 294.29-13.84Q294.29-6.79 291.05-3.14 287.82 0.51 282.3 0.51ZM282.3-4.96L282.3-4.96Q284.69-4.96 285.94-6.91 287.18-8.86 287.18-13.16L287.18-13.16 287.18-22.41Q287.18-26.66 285.91-28.61 284.64-30.57 282.25-30.57L282.25-30.57Q279.83-30.57 278.59-28.61 277.34-26.66 277.34-22.41L277.34-22.41 277.34-13.16Q277.34-8.86 278.6-6.91 279.86-4.96 282.3-4.96Z" opacity="1" transform="matrix(1,0,0,1,0,0)" fill="#000000" class="wordmark-text-0" data-fill-palette-color="primary" id="text-0"></path></svg></g></svg></g></svg></g></svg></g></svg></g></svg></g></svg></g><path d="M180.131 99.816L180.131 36.687 6.305 36.687 6.305 210.513 180.131 210.513 180.131 147.384 176.924 147.384 176.924 207.306 9.513 207.306 9.513 39.894 176.924 39.894 176.924 99.816Z" fill="#000000" stroke="transparent" data-fill-palette-color="primary"></path></svg></g><defs></defs></svg><rect width="395.52" height="247.2" fill="none" stroke="none" visibility="hidden"></rect></g></svg></g></svg>